<svg xmlns="http://www.w3.org/2000/svg" width="569" height="169" viewBox="0 0 569 169"><title>Slice 1</title><g fill="none" fill-rule="evenodd"><g fill="#4D4D4D"><path d="M180.5 53c-8 0-14.7 1.6-17.3 2.5L160.5 70s13.3-3.6 19-3.4c9.8.3 10.7 3.7 10.5 8.2.2.3-2.5-4-10.8-4.2-10.6-.2-25.5 3.7-25.5 19.7-.3 18 13.4 23.2 22.7 23.3 8.4-.2 12.3-3.2 14.5-4.8 2.7-3 6-6 9-9.5-3 5.3-5.4 9-8 11.8v2.4l12.7-2V76.6c0-5 3-23.7-24.2-23.8zm-1.8 30c5.3.2 11.3 2.8 11.4 9 0 5.8-7 8.8-11.7 8.8-4.7 0-11-3.7-11-9.3.2-5 6-8.5 11.4-8.4zM213.2 56v57.5l14.7-2.8V78c0-4.7 7-10.4 15.6-10.3 1.8-3.3 5.3-11.8 6-13.8-19.3 0-19.5 5.5-23 8.3v-8.5L213.3 56zM296.7 63.7s-7.7-9-23-9C259.4 54.5 243.4 60 243 84c.2 21 15.5 29.4 30.8 29.5 16.4.2 23-10.2 23.3-10.5-2-1.6-9.2-9-9.2-9s-4.6 6.6-13.4 6.7c-9 0-16.6-6.8-16.7-16.5 0-9.7 7-15 16.7-15.4 8.4 0 13.2 5.4 13.2 5.4l9-10.5zM315.5 36l-14 3.4V114l14-2.4V76.4c0-3.7 5.3-9.3 14.2-9 8.5 0 10.4 5.5 10.3 6.2l.3 40.7L354 112V68.6c0-4-9-13-24-13-7 0-10.8 1.7-12.8 2.8-3.4 2.6-7.3 5-11 8.3 3.5-4.5 6.4-7.6 9.3-10V36.2z"/></g><g fill="#1793D1"><path d="M365.7 38l6.4-1.6-.6 75.4-6.5 1 .7-74.8zM382.7 60.5l5.6-2.5-.7 54-5.4 1 .5-52.5zm-1-19.5l4.5-3.6 3.7 4-4.7 3.8-3.6-4.2zM398.8 59.5l6.4-1.3-.2 11.3c0 .5 3.7-12.6 20.6-12.3 16.3 0 18.8 12.7 18.7 15.5l-.4 39.7-5.7 1.2.5-39.2c0-1.2-2.3-11-14-11-11.5 0-19.6 8.4-19.6 13.8l-.4 34.6-6.5 1.6.5-54zM499.4 112.7L493 114l.2-11.3c0-.5-3.7 12.6-20.5 12.3-16.4 0-19-12.7-18.8-15.5l.3-39.7 6.8-1.4-.4 39.3c0 1 1.2 11 12.7 11 11.6 0 19.8-7 20-17.4l.3-31L500 59l-.6 54zM512.7 59l-4.6 3.5 17 22.3-18.7 25.7 4.7 3.5 17.5-24 17.3 24.5 4.5-3.4-18.6-26L547 63.7l-4.5-4-14 19.7L512.6 59z"/></g><path fill="#1793D1" d="M84.8 1.6c-7.4 18.2-11.8 30-20 47.6 5 5.4 11.2 11.6 21.2 18.6-10.8-4.4-18.2-9-23.7-13.5-10.5 22-27 53.3-60.6 113.5 26.4-15.2 46.8-24.6 65.8-28-.8-3.7-1.3-7.5-1.2-11.4v-1c.4-16.7 9.2-29.7 19.6-28.8 10.3.8 18.4 15.2 18 32 0 3.3-.5 6.3-1 9.2 18.7 3.7 39 13 65 28l-14.2-26c-6.8-5.4-14-12.3-28.6-19.8 10 2.6 17.2 5.6 22.8 9-44.4-82.7-48-93.6-63.2-129.4z"/><g fill="#1793D1"><path d="M558.5 109.4v-4.7h-1.8v-.6h4.2v.7H559v4.7h-.7M561.7 109.4V104h1l1.3 3.8.2.8.3-.8 1.3-3.7h1v5.4h-.8V105l-1.5 4.4h-.6l-1.7-4.5v4.4h-.6"/></g><g fill="#1793D1"><path d="M168.7 153v-4.6H167v-.6h4v.6h-1.6v4.6h-.7M171.8 153v-5.2h1l1.3 3.7.3.7.3-.8 1.2-3.6h1v5.2h-.7v-4.3l-1.4 4.3h-.6l-1.5-4.4v4.4h-.7"/></g></g></svg>
