<svg xmlns="http://www.w3.org/2000/svg" width="108.8" height="144.1" overflow="visible" viewBox="0 0 108.8 144.1"><path fill="#A80030" d="M61 47.6c-1.5 0 .3.8 2.2 1l1.5-1c-1.2.2-2.5.2-3.7 0M69 45.6c1-1.2 1.5-2.5 1.8-4-.2 1-.8 2-1.3 2.8-2.8 1.8-.3-1 0-2-3 3.7-.4 2.2-.5 3.2M72 38c0-2.7-.6-2-.8-1 .3.3.5 2 .7 1M55.3 1.2c.8 0 1.7.2 1.6.4.8-.2 1-.4-1.7-.4M57 1.6h-.7.6"/><path fill="#A80030" d="M81.8 39c0 2.4-.7 3.6-1.5 5.6l-1.3.7c-1 2 0 1.3-.6 3-1.7 1.4-5 4.5-6 4.8-1 0 .4-.8.6-1.2-2.2 1.5-1.8 2.3-5 3.2l-.2-.2c-8.4 4-20-4-19.8-14.5 0 .7-.2.5-.4.8C47 35.8 50 30.3 55 28c5-2.5 10.6-1.5 14 1.8-1.8-2.5-5.6-5.2-10-5-4.5 0-8.7 3-10 6-2.3 1.4-2.6 5.5-3.6 6.2-1.3 9.8 2.5 14 9 19 1 .7.3.8.4 1.3-2-1-4-2.5-5.7-4.4 1 1.2 2 2.4 3 3.3-2-.7-4.7-5-5.5-5 3.5 6.2 14.2 11 19.8 8.6-2.6 0-6 0-8.8-1-1.2-.8-3-2-2.6-2.3 7.6 2.8 15.5 2 22-3C79 52 80.7 50 81 50c-.7 1.2.3.6-.4 1.6 1.7-2.7-.7-1 1.8-4.6l1 1.2c-.5-2.2 2.7-5 2.3-8.5.8-1 .8 1.2 0 3.7 1-2.8.4-3.3.6-5.5l1 2.3c-.8-2.7.6-4.5 1-6-.4-.3-1 1-1.3-2 0-1.4.4-.8.6-1-.3-.3-1-1.3-1.5-3.4.5-.5 1 1.2 1.4 1.2-.3-1.6-.7-2.8-.8-4-1.2-2.6-.4.3-1.4-1-1.3-4.2 1-1 1.3-3 2 3 3 7.4 3.6 9.3-.3-2.3-1-4.5-1.7-6.6.6.2-1-4.8.8-1.5C87.3 15.5 81 9 75.4 6c.7.7 1.6 1.5 1.3 1.6-3-1.7-2.4-1.8-2.8-2.5-2.3-1-2.4 0-4 0-4.3-2.3-5-2-9.2-3.5l.2 1c-3-1-3.3.3-6.4 0-.2-.2 1-.6 2-.8-3 .4-2.7-.5-5.4 0l2-1C51 .6 47.7 2 48.7.8c-3.7 1.5-10.3 4-14 7.3v-.8c-1.8 2-7.5 6-8 8.7h-.4c-1 1.6-1.4 3.3-2 5-1.3 1.8-1.8.6-1.7 1-2.2 4.5-3.3 8.4-4.3 11.5.7 1 0 6.3.3 10.4C17.3 64.8 33 84.7 50 89.3c2.4 1 6 1 9.2 1-3.7-1-4.2-.6-7.8-2-2.6-1-3.2-2.5-5-4l.7 1.2c-3.5-1.3-2-1.6-5-2.5l.8-1c-1.2-.2-3-2-3.6-3.2H38c-1.7-1.8-2.5-3.2-2.4-4.3l-.4.8c-.5-.8-5.7-7.2-3-5.7-.5-.5-1.2-.8-2-2l.6-.7c-1.3-1.8-2.4-4-2.3-4.7.7 1 1.2 1.2 1.7 1.3-3.3-8-3.5-.4-6-8.3h.5l-1-2 .3-2.2c-2.4-2.7-.7-11.6-.3-16.5.2-2 2-4 3.3-7.4h-.8c1.5-2.7 8.8-10.8 12-10.4 1.8-2-.2 0-.5-.5 3.6-3.6 4.7-2.5 7-3.2 2.7-1.6-2 .6-1-.6 4.6-1 3.3-2.6 9.2-3.2.5.4-1.6.6-2 1 3.7-1.8 11.8-1.4 17 1 6.2 3 13 11.3 13.3 19.3h.3c0 3.2.5 7-.6 10.3l.8-1.6"/><path fill="#A80030" d="M44.7 49.7l-.3 1c1 1.4 1.8 2.8 3 4-.8-2-1.5-2.6-2.7-5M47 49.6c-.5-.6-.8-1.3-1.2-2 .3 1.3 1 2.3 1.6 3.4l-.4-1.4M88 40.7l-.2.5c-.4 3-1.2 5.7-2.6 8.3 1.5-2.7 2.5-5.8 3-8.8M55.6.4c1-.3 2.5-.2 3.6-.4-1.4 0-2.8.2-4.2.4h.6M20 19.3c.4 2.2-1.5 3 .5 1.6 1-2.6-.4-.8-.4-1.7M17.7 29.3c.5-1.5.6-2.3.8-3.2-1.3 1.8-.6 2.2-.8 3.3"/><path d="M13.4 125.5v9.5c-.2 1.5-.3 5-3.7 5-3.4 0-4.2-4-4.5-5.7-.3-2-.3-3.5-.3-4.2 0-2 0-8.3 5.2-8.3 1.6 0 2.5.4 3.2.8v3zM0 131c0 13 7 13 8 13 2.8 0 4.7-1.5 5.5-4.3v4.2c1-.2 1.8-.3 3.3-.3H18c.4 0 .8 0 1.2.2-.7-1.6-1.3-5-1.3-12.2 0-7 0-19 .5-22.6-1.6.8-3 1.3-6.2 1.6 1.2 1.4 1.2 2 1.2 8.2-.8-.3-2-.6-4-.6-8.2 0-9.5 7.2-9.5 12.6M25 128.6c.2-3.8 1-7.3 4.3-7.3 3.6 0 3.8 4 3.8 7.3h-8zm12.6.5c0-5.4-1-10.7-8-10.7-9.3 0-9.3 10.5-9.3 12.7 0 9.4 4.2 13 11.3 13 3 0 4.7-.3 5.5-.6 0-1.6.3-2.7.6-4-1 .5-2.3 1.3-5 1.3-7.3 0-7.4-6.6-7.4-9h12.4v-2.6M52.7 131c0 4.4-.8 10.2-6 10.2-1 0-1.8-.2-2.4-.3v-8c0-4 .3-6 .6-7 1-3.4 3-3.4 3.5-3.4 3.5 0 4.2 5 4.2 8.5zm-13.3 5c0 3.6 0 5.5-.5 7 1.8.7 4 1 7 1 1.8 0 7 0 9.8-5.7 1.4-2.6 1.8-6.3 1.8-9 0-1.7-.2-5.3-1.5-7.6-1.2-2.2-3.3-3.3-5.5-3.3-4.5 0-5.8 3.7-6.4 5.6 0-2.4 0-10.6.5-14.8-3 1.3-5 1.6-7 1.8 2 .7 2 3.8 2 13.7V136M66.5 144c-1-.3-1.5-.4-3-.4-1.4 0-2.4 0-3.5.3.5-1 .7-1.4.8-4.4.2-4.2.3-15.2 0-17.5-.3-1.7-.7-2-1.4-2.4 3.8-.4 5-.7 6.7-1.5-.3 2-.3 3.2-.3 6.3 0 16-.2 17.7.8 19.6M81.4 130.7c0 3-.2 5-1 6.6-1 2-2.5 2.7-3.8 2.7-2.7 0-3.3-2.3-3.3-4.6 0-4.3 4-4.7 5.6-4.7h2.4zm-12.8 5.7c0 3 1 6 3.5 7 1.3.6 2.4.6 2.8.6 4.3 0 5.7-3 6.6-5v5c1-.2 1.8-.3 3.2-.3.8 0 1.5 0 2.3.2-.6-1-1-1.4-1-3.2v-15.4c0-3.6-1-7-8-7-4.5 0-7.2 1.4-8.6 2 .6 1 1 2 1.5 4 1.7-1.6 4-2.5 6.4-2.5 4 0 4 2.5 4 6h-3c-6 0-9.8 2.2-9.8 8.5M108 139.3c0 1.5 0 3.2.8 4.6-1-.2-1.7-.4-3.6-.4-1 0-1.7 0-2.6.3l.4-1.8.2-5.8v-5-6.5c-.2-1-.4-3-3-3-2.8 0-3.6 2-4 3.5-.3 1.6-.3 3.4-.3 10.2 0 6 0 6.5.4 8.2-.8-.2-1.8-.3-3.2-.3-1 0-1.8 0-2.7.2.3-1 .5-1.3.6-3.8 0-2.6.3-15 0-18-.3-2-.8-2.3-1.3-2.8 3.8 0 5-.8 6-1.4v5c.7-1.5 1.8-4.7 6.5-4.7 5.8 0 5.8 4.2 6 7v14"/><path fill="#A80030" d="M67 111.5l-4 4-3.7-4 3.8-3.8 4 3.8"/></svg>
