<svg xmlns="http://www.w3.org/2000/svg" width="709" height="217" viewBox="0 0 709 217"><title>Slice 1</title><g fill="none" fill-rule="evenodd"><g fill="#3C6EB4"><path d="M605 205v4.6c0 .3-.2.5-.6.5-.3 0-.5 0-.6-.5v-7.3c0-.4.2-.6.6-.6.4 0 .6.2.7.7l2.7 5.8 1.7-4 1-2.2c.2-.2.4-.2.5-.2.3 0 .5.2.6.6v7.3c0 .4-.3.6-.6.6-.4 0-.6 0-.6-.4V205l-2.3 5h-.3c-.3 0-.6-.2-.8-1l-2-4m-7.8-3.5h5.4c.3 0 .5.3.5.6v.2c0 .3 0 .5-.5.5h-2v7c0 .2-.2.4-.6.4-.4 0-.6 0-.7-.5v-6.8h-2c-.4 0-.6-.2-.6-.6 0-.3.2-.4.5-.4M166 172.6H98.4c1 14.7 13 25.6 28.6 25.6 11.2 0 20.8-4.6 28.5-12 1.5-1.6 3.2-2 5.2-2 2.6 0 5.3 1.3 7 3.5 1 1.5 1.7 3.3 1.7 5 0 2.4-1 5-3 7-9.2 9.8-24.7 16.4-40 16.4-27.7 0-50-22.2-50-50 0-27.7 21.6-50 49.4-50 27.5 0 48 21.5 48 49.6 0 4.2-3.7 7-8 7zM125.7 134c-14.7 0-24.7 9.6-27 23.6h53.8c-2-13.4-12.4-23.6-26.8-23.6zM358.7 216c-27.7 0-50-22.2-50-50 0-27.6 22.3-50 50-50s50 22.4 50 50c0 27.8-22.2 50-50 50zm0-81c-17.4 0-28.8 14-28.8 31s11.3 31 28.7 31 29-14 29-31-11.5-31-29-31zM481 116c-14.7 0-24.4 4.4-33 15.3l-.7-5c-.7-5.4-5.2-9.4-10.7-9.4-6 0-10.7 4.7-10.7 10.6v77c0 5.8 4.7 10.6 10.6 10.6 6 0 10.7-4.8 10.7-10.7v-41.3c0-18.7 16.4-28 33.6-28 5.2 0 9.3-4.5 9.3-9.7s-4-9.4-9.4-9.4zM593.8 166c.2-26.8-19-50-50-50-27.7 0-50.2 22.4-50.2 50 0 27.8 21.8 50 48.3 50 13 0 25-6.7 30.2-13.8l2.6 6.6c1.4 3.7 5 6.4 9.2 6.4 5.4 0 9.8-4.4 9.8-9.8V166zm-50 31c-17.4 0-28.8-14-28.8-31s11.3-31 28.8-31 28.8 14 28.8 31-11.3 31-28.8 31zM291.6 76.6c0-6-4.8-10.5-10.7-10.5-6 0-10.8 4.7-10.8 10.6V133c-5.5-10-17.3-17-31.2-17-28.4 0-47.4 21.5-47.4 50 0 28.7 19.6 50 47.4 50 12.3 0 23-5 29.5-14l2.3 6c1.5 4.3 5.5 7.2 10 7.2 6 0 10.8-4.7 10.8-10.6v-128zm-50 120.5c-17.5 0-28.6-14-28.6-31s11-31 28.6-31 28.6 13.4 28.6 31c0 17.8-11.2 31-28.6 31zM68.8 66.7c-2-.3-4-.4-6-.4-22 0-40 18-40 40V119h-13c-5 0-8.8 3.8-8.8 8.6 0 5 4 9.7 8.7 9.7h13v67.2c0 6 5 10.7 10.8 10.7 6 0 10.7-4.8 10.7-10.7v-67.2h14.5c4.8 0 8.7-4.8 8.7-9.7 0-4.8-4-8.7-8.7-8.7H44.2v-12.6c0-10.3 8.4-20 18.7-20h2.7c6 1 11.3-1.7 12.2-7.5.7-6-3.3-11.4-9.2-12.3z"/></g><path fill="#3C6EB4" d="M700.3 110v4.5c0 .3 0 .5-.5.6-.4 0-.6 0-.6-.5v-7.3c0-.5.2-.7.5-.7.4 0 .6.2.7.7l2.6 6c0-.3.7-1.6 1.8-4l1-2.5.5-.2c.4 0 .6.2.6.7v7.3c-.2.4-.4.6-.7.6-.4 0-.6-.2-.6-.5V110c-1.4 3-2 4.8-2.2 5h-.5c-.3 0-.6-.3-.8-1l-2-4m-7.7-3.5h5.4c.3 0 .5.3.5.6v.2c0 .3-.3.4-.7.5h-2v6.8c0 .3-.2.5-.5.6-.4 0-.6 0-.7-.5v-6.8h-2c-.4 0-.6-.3-.6-.6s.3-.5.5-.5"/><path fill="#294172" d="M708.8 61c0-33.2-26.8-60-60-60C616 1 589 27.8 589 61V107c0 7.5 6 13.6 13.6 13.6H649c33 0 59.8-26.8 59.8-60z"/><path fill="#3C6EB4" d="M666.5 15.2c-15.6 0-28.2 12.6-28.2 28v15h-14.8c-15.5 0-28 12.5-28 28 0 15.6 12.5 28.2 28 28.2s28-12.6 28-28V71h15c15.5 0 28-12.4 28-28s-12.5-28-28-28zm-28.2 71c0 8.3-6.6 15-14.8 15-8.2 0-15-6.7-15-15 0-8 6.8-15 15-15h12.7c1.2 0 2 1 2 2.2v13zm28.2-28h-12.8c-1 0-2-1-2-2V43c0-8 6.6-14.7 14.8-14.7 8.2 0 15 6.6 15 14.8 0 8.2-6.8 15-15 15z"/><path fill="#fff" d="M638.4 58.2v-15c0-15.4 12.5-28 28-28 2.4 0 4 .3 6.3.8 3.2 1 5.8 3.5 5.8 6.5 0 3.7-2.7 6.3-6.7 6.3-2 0-2.6-.3-5.3-.3-8.2 0-15 6.6-15 14.8V56c0 1.3 1 2.2 2.2 2.2h9.8c3.6 0 6.5 3 6.5 6.6 0 3.6-3 6.5-6.5 6.5h-12v15c0 15.5-12.5 28-28 28-2.3 0-4-.2-6.2-.8-3.2-.8-5.8-3.4-5.8-6.4 0-3.6 2.7-6.3 6.7-6.3 2 0 2.5.4 5.3.4 8.2 0 14.8-6.5 15-14.7v-13c0-1-1-2-2.2-2h-9.8c-3.6 0-6.6-3-6.6-6.5 0-3.7 3-6.6 6.6-6.6h11.7z"/></g></svg>
