<svg xmlns="http://www.w3.org/2000/svg" fill-rule="evenodd" stroke-miterlimit="1.4" viewBox="0 0 500 600" clip-rule="evenodd" stroke-linejoin="round"><path d="M288 447.2h8.4v101H288V447.4v-.3M309 447.2h9.4V458H309V447M169.8 477.8h6.5v7.2H170c-.2 15.6 0 33-.2 49.4 0 2.5 0 5 .8 6.4.8 1.5 3.4 1.7 5.7 1.6v7.4c-5.6.3-11 0-13-3.8-2-3.5-1.8-8.6-1.8-14v-47H157v-7.2h4.5v-15.5c2.7-1 5.7-2.4 8.3-3.3v18.8zM440.8 460h7.3v2h-2.5c-.2 7.4 0 15.4 0 23-.8 0-1.7.3-2.3 0v-23h-2.5v-2M450.5 460h3.7c.7 7.7 1.6 15.3 2.4 23 .4-1.7.5-3.6.8-5.5.6-5.8 1-11.8 1.7-17.6h3.8v25c-.6 0-1.4.3-2 0 0-7.7.2-15.6 0-23.2-.5.2-.3 1-.4 1.3l-2.3 22h-3c-.8-7.6-1.5-15.6-2.6-23.2-.4 7.4 0 15.6-.2 23.3h-1.8v-25M46 497.5v28c0 4.7-.3 9.8 1.4 12.2 1.3 1.8 4.8 2.5 6.8 1.3 3-1.6 3-7 3-12.3V496c0-5 0-10.7-3-12.4-1-.4-2.8-.4-3.7-.3-5.2.7-4.6 8.3-4.6 14.2M57 482l.7-4.2h7.8v74c0 6.7 0 12.6-1.7 17-1.6 4.5-5.4 6.8-11.4 7-6.4 0-11-1.5-13-5.5-2.2-4-2.5-9.4-2.4-16.3H46c.3 4.7-.5 9.7 1.3 12.6 1.5 2.6 6.4 2.7 8.2.4 2-2.6 1.7-8 1.7-13.2v-13c-.8 1-1.3 2-2.2 3-4 4-12.8 4-15.8-1-2-3.4-2-9-2-14.6v-33.4c0-9.2 0-18 8.4-18.6 6-.5 9.3 2.2 11.6 6M98.2 496c0-6 .3-13.3-6-12.7-5.2.4-5.2 6.8-5.2 12.5v14c3.6.2 7.5 0 11.2 0v-13.7zm8.8 21H87v13c0 4 0 9 1.8 11.2 1.7 2 6 2 7.6 0 3-3.4 1.3-11.5 1.8-17.2h8.8c-.2 8 .5 14.8-2.2 20.2-2 3.7-6 5.5-11 5.7-5.3 0-10-1.2-12.4-4.5-2.8-4-3-11.2-3-18v-21.2c0-7.6-.4-14.7.8-20.3 1.3-6.2 4.6-9.4 11.5-9.8 7-.5 11.6 1.3 14 5.4 2.2 4.2 2.3 10.2 2.3 16.6v19zM148.2 548.2h-8.4V500c0-5 .5-11.4-1.5-14.6-1.7-2.6-7-2.8-8.8 0-2 3-1.5 9.5-1.5 14.5V548h-8.4v-70.4h7.8l.6 4.2c2-2.7 4.5-5.5 9-5.8 11.3-1 11.2 9 11.2 19.5v52.5zM193 497.8v30c0 5-.3 10.7 1.7 13.3 1.7 2.2 5.8 2 7.3.6 2.5-2.2 2.2-8.4 2.2-13.5v-31.3c0-6.4.4-14.2-6.2-13.3-5.5.7-5 8.2-5 14.4m3.6-21.6c5-.4 9.7.5 12.3 3 5 4.8 4 16.5 4 26.4V521c0 10 1 21.5-4.3 26-3 2.6-7.7 3.3-12.4 2.8-4.4-.4-8-2.2-9.6-5.7-1.8-3.5-2.2-8.8-2.3-14.6v-17c0-6-.3-11.3 0-17 .2-5 .5-11 2.6-14.3 1.8-3 5.4-4.4 9.6-4.8M234 498.3V529c0 5-.2 11 2.6 13 1.8 1 5.2.8 6.4-.4 2.5-2.2 2.2-8.6 2.2-13.6v-31.4c0-6.5.3-14-6.3-13.2-5.7.7-5 8.6-5 15m3.5-22.2c6.3-.5 12 1 14.2 5.6 2.5 5 2.3 13.4 2.3 21.3v23.7c0 7.8 0 15.8-4 19.7-3.6 3.8-12.7 4.8-18.3 1.8-5.4-2.8-6-9.7-6.4-18.3-.2-6 0-11.2 0-17v-16.8c0-5.2.5-11 2.3-14.6 1.8-3.4 5.5-5 10-5.4M359.4 548.2H351v-48c0-5 .6-11.2-1.3-14.5-1.3-2.2-5-3.3-7.6-1.6-3 2-2.7 8.8-2.7 14v50c-2.7.3-5.7 0-8.5.2v-70.4h7.8l.6 4.2c2-2.7 4.5-5.5 9-5.8 11.3-1 11.2 8.7 11.2 19.4v52.6M309.5 477.8h8.3c0 23.5.2 47 0 70.4h-8.3c-.3-23.2 0-46.8 0-70v-.4M372.3 477.8h8.4v48c0 6-1 15 3.6 16.6 2.7 1 5.5 0 6.6-2 2-3 1.4-9.4 1.4-14.4v-48.2h8.5V548c-2.5.3-5.4 0-8 .2-.3-1.3-.4-2.8-.6-4.2-2 3.3-6 6-11.2 5.7-9-.4-9-9.7-9-19.3V478v-.2M409.6 477.8h8.8l6 26 6-26h8l-9 32c0 .6-.5 1.4-.5 2-.2 1 1 3.3 1.2 4.5l9 32h-9l-7-29-6.8 29h-8c3-10.6 6-21.4 9.2-32.2.4-1.4 1.3-3 1.3-4.4 0-1-1-3-1.2-4.2-2.8-9.8-5.4-19.7-8.2-29.3v-.2"/><g><path fill="url(#a)" d="M63.8 329.8c0-16.5 14-39.4 34-60.3 13.2-14 26.6-26.2 56-51.2-20.3-11.2-52-24.6-67.8-42.3-6-6.5-16.5-21.3-14.4-41C75.8 94.8 125.4 33.7 196 20.8c23.5-4.3 50.5-1.2 72.7 8.8 69.6 31.3 154.8 109 165.2 147 3.6 13.4 3 34.7-3.4 46.6-8 14.7-35.2 44.6-72.5 75.4-58.5 48.4-140.5 100.4-201.8 109-19.8 3-40 0-54.2-8-22.2-12.5-29.6-29.3-32.2-34.3-7-13.3-6-30.2-6-35.5zM228.6 145c.7-9.3 37.3 0 35 7.4-2.4 7.7-36 3.3-35-7.4z"/><path fill="url(#b)" d="M173.6 203c-19.2 16-32 27-48 41.7-38.7 35.3-65 62.2-51.4 99 15.6 42.3 49.8 40.2 90 32.3 103.4-20.4 273.4-151 264.7-199.4-7-39-102-116.7-158.3-144.3-17.6-8.7-37.8-13-58-12.2C135 24 74.6 94.3 77.8 132.4c3 37 96.7 69.5 95.6 70.6zM162 73.2c-23.3 26-8.4 76 30.2 103.3 45.2 32 118.3 37.7 132.8 13 27.2-46-2.5-94.5-46.7-116C234.6 52 176.5 57 162 73.2z"/><path fill="url(#c)" d="M241.4 175.5c32.6 4.5 60.8-8.5 65.2-40.8 3.3-24.6-34.3-51.4-57-57.6-18.8-5-59.7 1.6-62.5 37.3-2.8 37 35.3 58.6 54.4 61.2zm-16-61.7c-21.5 33.2 31 43.5 39.2 37.4 34.7-26.2-29.8-52-39.2-37.4z"/><path fill="url(#d)" d="M206.3 29c-38 4-45.2 9-79.6 35C115 72.5 94 93.7 88.5 119c-2 9.6.4 18 7.3 23.7 22 18.6 59 33.7 89.5 48.2 9 4.2 3 12-11.4 24.4-36.3 31.3-85.2 69.4-88.6 98.5-1.6 13.6 3 32.2 19.7 41.7 19.5 11.2 59.8 4 86.7-6 39.4-14.8 91-47 132-79 42.7-33 82.4-75 84.3-81.7 2.4-8.4 2.2-16.2-2.4-25-7.3-14-17-24.6-27.6-36.2C350 98 320 72 284.5 52c-25.7-14.3-48.3-26.2-78.2-23zM262 95.4c27.5 13.3 55.7 48 0 68.2-15.3 5.4-63.5-13.4-62-39 2-38 28.6-45.4 62-29.2z"/></g><defs><linearGradient id="a" x2="1" gradientUnits="userSpaceOnUse" gradientTransform="rotate(79.19 530.228 -433.208) scale(1304.7)"><stop offset="0%" stop-color="#fff"/><stop offset="34%" stop-color="#fff"/><stop offset="51%" stop-color="#bebdf3"/><stop offset="75%" stop-color="#867fb7"/><stop offset="87%" stop-color="#9f99c7"/><stop offset="100%" stop-color="#524c76"/></linearGradient><linearGradient id="b" x2="1" gradientUnits="userSpaceOnUse" gradientTransform="rotate(-102.573 276.163 30.736) scale(339.536)"><stop offset="0%" stop-color="#fff"/><stop offset="34%" stop-color="#fff"/><stop offset="51%" stop-color="#bebbdb"/><stop offset="75%" stop-color="#928bbe"/><stop offset="87%" stop-color="#9f99c7"/><stop offset="100%" stop-color="#524c76"/></linearGradient><radialGradient id="c" cx="0" cy="0" r="1" gradientUnits="userSpaceOnUse" gradientTransform="matrix(65.776 0 0 50.415 219.576 105.5)"><stop offset="0%" stop-color="#fff"/><stop offset="34%" stop-color="#fff"/><stop offset="51%" stop-color="#bebbdb"/><stop offset="75%" stop-color="#928bbe"/><stop offset="87%" stop-color="#9f99c7"/><stop offset="100%" stop-color="#524c76"/></radialGradient><radialGradient id="d" cx="0" cy="0" r="1" gradientUnits="userSpaceOnUse" gradientTransform="matrix(-9.017 572.145 -487.965 -7.683 69.926 121.634)"><stop offset="0%" stop-color="#fff"/><stop offset="34%" stop-color="#fff"/><stop offset="51%" stop-color="#bebbdb"/><stop offset="75%" stop-color="#928bbe"/><stop offset="87%" stop-color="#9f99c7"/><stop offset="100%" stop-color="#524c76"/></radialGradient></defs></svg>
