<svg xmlns="http://www.w3.org/2000/svg" width="340" height="220.3"><g fill="#73ba25"><path fill-rule="evenodd" d="M291 35.7c-3.5 0-6.6 1-9 3.3-2.4 2.3-3.8 5.3-4 8.6 0 6.8 5.2 12.6 12 12.8 3.3 0 6.5-1 9-3.3 2.3-2.2 3.7-5.2 3.8-8.5.2-6.8-5-12.6-12-12.8zm2 13.5c-3.2 0-5.6-1.6-5.6-3.6s2.4-3.7 5.5-3.7c3 0 5.4 1.5 5.4 3.6 0 2-2.5 3.6-5.5 3.6zM320 65c.8-.5 1.4-1 1.7-1l.2-.5c-.7-4.3-7-25-12-30-1.3-1.4-2.3-2.7-4.5-4-17.5-10-59-16.3-60.8-16.5h-.3l-.2.3V23c-4.4-1.5-35-11.5-64-12.5-24.4-.8-60-4-107 25l-1.5 1C49.5 50 34.2 67.2 26.2 87c-2.6 6.4-6 20.4-2.6 33.7 1.5 5.8 4 11.6 7.8 16.8 8.2 11.8 22 19.6 36.7 21 21 1.8 37-7.6 42.5-25.2 4-12 0-30-15-39-12-7.4-25-5.7-32.4-.7-6.5 4.3-10.2 11-10 18.4 0 13 11.3 20 19.5 20 2.3 0 4.7-.3 7.4-1.2.8-.3 1.7-.6 2.7-1.2l.3-.2h.2c1.8-1.4 3-3.4 3-5.6 0-.6-.2-1.2-.4-1.8-1-3.3-4.2-5.4-7.6-4.7h-.5l-.6.3-.8.3-3.5.4c-1 0-5.7-1.5-5.7-6.6 0-2 .8-3.3 1.2-4 1.5-2.3 5.4-4.5 10.8-4 7 .6 12.2 4.2 15.5 11 3.2 6.4 2.3 14.2-2 20-4.5 5.6-12.3 8-22.7 7-10.5-1.3-19.3-7.3-24.3-16.7-4.8-9-5-20-.7-28.3 10.6-20 30.7-20 41.7-18 16.2 3 34.7 18 41.3 35.2 1 2.6 1.6 4.8 2 6.8l.8 3 18.3 9 .2.2h.4v-.6c0-.4-.3-.8-.7-6-.4-4.5-1.2-17 5-23.2 2.6-2.4 6.3-4.5 9.2-5.2 12-3 26.2-1 39.5 14.5 7 8 10.3 11.6 12 13.3l.6.5.7.5 23 10.6h.4v-.6s-14.2-18.3-11.7-33.2c2-12 11.5-11 24.6-9.4 4.3.5 9 1 14.2 1.2 14 0 29.2-2.5 38.6-6.6 6-2.6 10-4.4 12.4-6.6 1-.7 1.3-2 1.8-3l.3-1c.4-1 1-3.2 1.2-4.3 0-.6.2-1.2-.2-1.5l-1.3.3c-4 2.4-14.3 7-24 7.3-11.8.3-35.8-12-38.3-13.2l-.4-.3-5-11.7c17.3 11.4 31.7 17.7 42.6 18.6 12.2 1 21.8-5.5 25.8-8.4zm-47.3-17.4c.2-4.8 2-9 5.6-12.4 3.5-3.2 8-5 12.7-4.7 9.8.3 17.4 8.6 17 18.3 0 4.8-2 9-5.5 12.4-3.5 3.2-8 5-12.7 4.7-9.8-.4-17.5-8.7-17-18.4z" clip-rule="evenodd"/><path d="M144 150c-7.8 0-12 6.6-12 11v6c0 6.7 5.4 10.8 10.5 10.8h17.8c2.2 0 2.7 1.5 2.7 2.7v3.8c0 .4 0 4-2.7 4H136c-2.4 0-4.2 1.7-4.2 4v1c0 2.3 1.8 4 4.2 4h25.6c6.7 0 11-4.6 11-12v-6.2c0-6.6-4.8-9.7-9.7-9.7h-17.6c-2.7 0-3.8-2-3.8-3.4v-3.5c0-2.2 1.4-3.5 4-3.5H165c2.4 0 4.2-1.7 4.2-4v-1c0-2.3-2-4-4.3-4h-21zM216.8 150c-2.3 0-4 2-4 4.2V184c0 2.4-2 4.3-4.4 4.3h-13.6c-2.3 0-4.3-2-4.3-4.3v-29.8c0-2.3-1.8-4.2-4-4.2H185c-2.3 0-4 2-4 4.2v31c0 7.2 5.5 12.4 13.4 12.4h14.4c7.8 0 13.5-5.2 13.5-12.5v-30.8c0-2.3-1.8-4.2-4-4.2h-1.5zM242.8 150c-7.8 0-12 6.6-12 11v6c0 6.7 5.4 10.8 10.5 10.8H259c2.3 0 2.8 1.5 2.8 2.7v3.8c0 .4 0 4-2.7 4H235c-2.4 0-4.2 1.7-4.2 4v1c0 2.3 1.8 4 4.2 4h25.6c6.7 0 11-4.6 11-12v-6.2c0-6.6-5-9.7-9.7-9.7h-17.5c-2.7 0-4-2-4-3.4v-3.5c0-2.2 1.6-3.5 4.2-3.5h19.4c2.4 0 4-1.7 4-4v-1c0-2.3-1.7-4-4-4h-21zM283.7 150c-2.3 0-4 1.7-4 4v39.3c0 2.3 1.7 4 4 4H315c2.4 0 4.2-1.7 4.2-4v-1c0-2.3-1.8-4-4.2-4h-25.7v-10H308c2.6 0 4.3-1.7 4.3-4v-1c0-2.3-1.7-4-4.2-4h-18.7V159h24.4c2.4 0 4.2-1.7 4.2-4v-1c0-2.3-2-4-4.3-4h-30zM17 168.7c-3.8 0-7 3-7 7v14.7c0 3.8 3 7 7 7h9.5c3.8 0 7-3.2 7-7v-14.8c0-3.8-3.3-7-7.2-7H17zm-2 21v-13.4c0-1.6 1.4-3 3-3h7.4c1.6 0 3 1.4 3 3v13.5c0 1.6-1.4 3-3 3H18c-1.7 0-3-1.3-3-3zM55 168.6c-2.6 0-4.7 1-6.4 1.8-1 .5-2 1-2.6 1-.3 0-.6-.3-.7-.5l-.6-1.3c-.2-.3-.8-1-1.6-1h-1c-.8 0-1.5 1-1.5 2V208c0 1.2 1 2 2 2h1c1 0 2-.8 2-2v-12.5c0-.4.3-.8.5-.8.7 0 1.6.3 2.6.8 1.7.8 3.8 1.7 6.5 1.7h1c5 0 8-2.8 8-7.3V176c0-4.6-3-7.4-8-7.4h-1zm-9.5 21v-13c0-1.8 1.4-3.2 3.2-3.2h7c1.8 0 3.2 1.4 3.2 3.2v13c0 1.7-1.5 3-3.3 3h-7c-1.7 0-3.2-1.3-3.2-3zM78.2 168.7c-4 0-7.2 3-7.2 7v14.6c0 3.8 3 7 6.8 7h10c1 0 2-.8 2-2v-.6c0-1-1-2-2-2h-8.2c-2.3 0-3.5-1-3.5-3.2v-4.3H91c2.3 0 3.7-1.5 3.7-4v-5.6c0-3.8-3.2-7-7-7H78zm-2 7.5c0-1.6 1-2.8 2.7-2.8h7.6c1.6 0 3 1.2 3 2.8v4.6H76v-4.6zM115 168.6c-2.8 0-5 1-6.6 1.8-1 .5-2 1-2.7 1-.3 0-.4-.2-.7-.6l-.5-1c-.4-.7-1-1-1.7-1h-.8c-1 0-1.7.7-1.7 1.8v24.6c0 1.2 1 2.2 2 2.2h1c1 0 2-1 2-2.2v-18.6c0-1.8 1.5-3.2 3.2-3.2h7c1.8 0 3.2 1.4 3.2 3.2v18.6c0 1.2 1 2.2 2 2.2h1c1 0 2-1 2-2.2V176c0-4.6-3-7.4-8-7.4h-.8z"/><g><path d="M326.2 187.8c2 0 3.8 1.7 3.8 4 0 2-1.7 3.8-3.8 3.8-2.2 0-4-1.7-4-4 0-2 1.8-3.8 4-3.8zm0 .6c-1.7 0-3 1.5-3 3.3 0 2 1.3 3.3 3 3.3s3-1.4 3-3.3-1.3-3.3-3-3.3zm-.7 5.6h-.7v-4.4h1.2c.7 0 1 0 1.3.2.3.2.4.5.4 1s-.3 1-.8 1c.3 0 .5.5.6 1 0 .8.2 1 .3 1.2h-.8l-.3-1c-.2-.7-.5-1-1-1h-.5v2zm0-2.4h.5c.5 0 1-.2 1-.8 0-.4-.3-.8-1-.8h-.5v1.6z"/></g></g></svg>
