<svg xmlns="http://www.w3.org/2000/svg" width="648.1" height="538" viewBox="0 0 648.1 538"><path fill="#DD4814" d="M500.5 170c0 94-76 170.2-170 170.2s-170-76.2-170-170c0-94 76-170.2 170-170.2s170 76 170 170z"/><path fill="#fff" d="M214.8 147.4c-12.6 0-22.7 10-22.7 22.7 0 12.6 10.2 22.8 22.8 22.8 12.5 0 22.7-10.2 22.7-22.7s-10.2-22.6-22.7-22.6zm162 103.2c-10.7 6.2-14.5 20-8.2 31 6.3 10.8 20.2 14.6 31 8.3 11-6.4 14.6-20.3 8.3-31-6.3-11-20.2-14.7-31-8.4zM264.2 170c0-22.4 11.3-42.2 28.3-54.2L275.7 88c-20 13.3-34.6 33.6-40.8 57.3 7 6 11.7 14.8 11.7 24.8S242 189 235 195c6 23.8 20.8 44 40.7 57.4l16.6-28c-17-12-28.2-31.7-28.2-54zm66.4-66.3c34.7 0 63 26.6 66 60.5l32.5-.5c-1.7-25-12.7-47.4-29.5-64-8.6 3.3-18.6 2.8-27.2-2.2-8.6-5-14-13.4-15.5-22.5-8.4-2.3-17.2-3.6-26.4-3.6-15.7 0-30.5 3.7-43.7 10.2l15.8 28.3c8.5-4 18-6.3 28-6.3zm0 132.7c-10 0-19.4-2.2-28-6.2l-15.7 28.3c13.2 6.5 28 10.2 43.7 10.2 9.2 0 18-1.2 26.4-3.6 1.5-9 7-17.4 15.5-22.4 8.6-5 18.6-5.5 27.2-2.2 16.8-16.5 27.8-39 29.4-64l-32.5-.4c-3 33.8-31.4 60.4-66 60.4zM377 89.6c10.8 6.2 24.7 2.5 31-8.3 6.2-11 2.5-24.8-8.4-31-10.8-6.3-24.7-2.6-31 8.3-6.3 10.8-2.5 24.7 8.3 31z"/><path d="M90.7 532c-4.7 1.2-10.7 2.4-18.3 3.7-7.5 1.3-16.3 2-26.2 2-8.6 0-16-1.3-21.8-3.8-6-2.7-10.7-6.2-14.3-10.8-3.5-4.6-6-10-7.6-16.3C.8 500.5 0 493.6 0 486v-63h20v58.7c0 13.7 2.2 23.5 6.5 29.4 4.4 6 11.6 9 21.8 9 2.2 0 4.4 0 6.7-.3 2.3 0 4.5-.3 6.5-.5s4-.4 5.5-.7c1.7-.2 3-.4 3.6-.7V423h20v109zM139.6 428c2.5-1.6 6.2-3.2 11.2-5 5-1.7 10.6-2.6 17-2.6 8.2 0 15.3 1.5 21.6 4.4 6.2 2.8 11.5 7 16 12 4.2 5.2 7.4 11.4 9.7 18.6 2.3 7.2 3.4 15 3.4 23.7 0 9.2-1.3 17.4-4 24.6C211.8 511 208 517 203 522c-4.8 5-10.7 9-17.6 11.7-7 2.8-14.7 4-23.3 4-9.3 0-17.5-.5-24.7-1.8-7.2-1.4-13-2.7-17.7-4V371.2l20-3.4V428zm0 89.8c2 .6 5 1 8.6 1.6 3.6.5 8.2.8 13.7.8 10.7 0 19.3-3.6 25.8-10.7 6.4-7.2 9.7-17.3 9.7-30.4 0-5.6-.6-11-1.7-16-1.2-5-3-9.4-5.7-13-2.4-3.8-5.8-6.6-10-8.7-4-2-9-3.2-14.7-3.2-5.4 0-10.5 1-15 3-4.7 1.8-8.2 3.8-10.7 5.8v71zM330.4 532c-4.6 1.2-10.6 2.4-18.2 3.7-7.6 1.3-16.3 2-26.2 2-8.7 0-16-1.3-21.8-3.8-6-2.7-10.7-6.2-14.3-10.8-3.7-4.6-6.3-10-7.8-16.3-1.6-6.4-2.4-13.3-2.4-21v-63h20v58.7c0 13.7 2.2 23.5 6.5 29.4 4.4 6 11.6 9 21.8 9 2.3 0 4.5 0 6.8-.3 2.3 0 4.5-.3 6.5-.5l5.5-.7c1.7-.2 2.8-.4 3.6-.7V423h20v109zM359.4 426.3c4.6-1.2 10.7-2.4 18.3-3.7 7.6-1.3 16.4-2 26.3-2 9 0 16.4 1.3 22.3 3.8 6 2.6 10.6 6 14 10.6 3.6 4.5 6 10 7.6 16.3 1.3 6.3 2 13.3 2 21v63h-20v-58.7c0-7-.5-12.8-1.5-17.7-1-5-2.4-9-4.6-12-2.3-3-5-5.2-8.7-6.6-3.6-1.4-8-2-13.4-2-2.3 0-4.5 0-6.8.2-2.3 0-4.5.3-6.6.5-2 .3-4 .6-5.6 1l-3.6.5v94.8h-20v-109zM496.4 423H539v17h-42.6v51.7c0 5.6.4 10.2 1.3 14 1 3.6 2.2 6.4 4 8.5 1.6 2 3.8 3.6 6.4 4.4 2.7 1 5.7 1.3 9 1.3 6.3 0 11.2-.7 14.8-2l7.3-3 4.5 16.4c-2 1-5.6 2.3-10.7 4-5 1.4-11 2.2-17.4 2.2-7.6 0-14-1-19-3-4.8-1.8-8.8-4.7-12-8.6s-5-8.7-6.2-14.4c-1.3-5.7-2-12.2-2-19.7V391.6l20.2-3.4V423zM648 532c-4.5 1.2-10.5 2.4-18 3.7-7.7 1.3-16.4 2-26.3 2-8.7 0-16-1.3-21.8-3.8-6-2.7-10.8-6.2-14.4-10.8-3.6-4.6-6.2-10-7.7-16.3-1.7-6.4-2.5-13.3-2.5-21v-63h20v58.7c0 13.7 2.2 23.5 6.5 29.4 4.4 6 11.6 9 21.8 9 2.2 0 4.4 0 6.7-.3 2.3 0 4.5-.3 6.5-.5l5.5-.7c1.7-.2 2.8-.4 3.6-.7V423h20v109h.2z"/></svg>
