<?xml version="1.0" encoding="UTF-8" standalone="no"?>
<svg xmlns="http://www.w3.org/2000/svg" height="90px" width="180px" version="1.1" xmlns:xlink="http://www.w3.org/1999/xlink" viewBox="0 0 180 90"><!-- Generator: Sketch 43.2 (39069) - http://www.bohemiancoding.com/sketch -->
 <title>build.snapcraft.social</title>
 <desc>Created with Sketch.</desc>
 <g id="Page-1" fill-rule="evenodd" fill="none">
  <g id="build.snapcraft.social" fill-rule="nonzero">
   <path id="path4235" fill="#CD201F" d="m180 68c0 12.15-9.85 22-22 22s-22-9.85-22-22c0-12.151 9.85-22 22-22s22 9.849 22 22z"/>
   <g id="Group" transform="translate(144 58)">
    <path id="Path" fill="#fff" d="m14.347 0.72387s-5.7483 0-9.5805 0.27673c-0.5337 0.0639-1.7004 0.071-2.7422 1.1597-0.8233 0.8317-1.0887 2.7194-1.0887 2.7194 0.00001 0-0.2725 2.2142-0.2725 4.4313v2.078c0 2.214 0.27393 4.433 0.27393 4.433s0.26967 1.887 1.0901 2.718c1.0404 1.09 2.4101 1.056 3.019 1.169 2.1914 0.21 9.3109 0.276 9.3109 0.276s5.756-0.009 9.588-0.284c0.535-0.066 1.703-0.071 2.743-1.161 0.821-0.832 1.089-2.718 1.089-2.718s0.273-2.217 0.273-4.433v-2.078c0-2.2142-0.273-4.4313-0.273-4.4313s-0.27-1.8877-1.089-2.7194c-1.041-1.0901-2.208-1.0958-2.743-1.1597-3.832-0.27673-9.581-0.27673-9.581-0.27673h-0.014-0.003z"/>
    <polygon id="Path" points="11.525 6.2111 18.926 10.072 11.527 13.907 11.527 6.2111" fill="#CD201F"/>
   </g>
   <path id="path5775" fill="#3C599B" d="m113 45.998c-12.15 0-22.003 9.849-22.003 22 0 12.15 9.853 22 22.003 22s22-9.85 22-22c0-12.151-9.85-22-22-22z"/>
   <path id="rect5792" fill="#fff" d="m122.69 59.748c-4.02 0-6.76 2.451-6.76 6.952v3.529h-4.55v5.26h4.55v14.287c1.86-0.246 3.68-0.729 5.42-1.439v-12.848h4.54l0.67-5.26h-5.21v-3.005c0-1.523 0.5-3.088 2.62-2.565h2.78v-4.705c-0.48-0.064-2.14-0.207-4.06-0.207v0.001z"/>
   <path id="path5750" fill="#55ACEE" d="m22.996 45.998c-12.151 0-22 9.849-22 22-0.00038 12.15 9.849 22 22 22 12.15 0 22-9.85 22-22 0-12.151-9.85-22-22-22z"/>
   <path id="path5679-3" fill="#fff" d="m26.179 56.949c-2.059 0.636-4.041 3.464-3.419 6.664-6.834-0.419-9.852-4.144-11.667-5.926-1.85 3.321 0.047 6.549 1.704 7.594-0.875 0.049-1.932-0.335-2.457-0.67-0.2 3.064 2.255 5.188 4.343 5.738-0.667 0.203-1.296 0.23-2.372 0.067 0.916 3.082 3.376 3.907 5.209 4.042-2.359 2.083-5.193 2.537-8.2744 2.384 7.9884 4.971 16.055 1.912 19.982-1.989 3.298-3.276 4.772-8.181 4.823-12.57 0.754-0.624 2.28-1.946 2.695-2.981-0.602 0.236-1.792 0.796-3.035 0.846 1.023-0.682 2.196-2.048 2.319-3.116-1.133 0.627-2.444 1.171-3.567 1.344-2.117-2.078-4.178-2.076-6.284-1.426v-0.001z"/>
   <path id="path4235" fill="#666" d="m180 23c0 12.15-9.85 22-22 22s-22-9.85-22-22c0-12.151 9.85-22 22-22s22 9.849 22 22z"/>
   <g id="Group" transform="translate(144 13)">
    <path id="Path" fill="#fff" d="m14.347 0.72387s-5.7483 0-9.5805 0.27673c-0.5337 0.0639-1.7004 0.071-2.7422 1.1597-0.8233 0.8317-1.0887 2.7194-1.0887 2.7194 0.00001 0-0.2725 2.2142-0.2725 4.4313v2.078c0 2.214 0.27393 4.433 0.27393 4.433s0.26967 1.887 1.0901 2.718c1.0404 1.09 2.4101 1.056 3.019 1.169 2.1914 0.21 9.3109 0.276 9.3109 0.276s5.756-0.009 9.588-0.284c0.535-0.066 1.703-0.071 2.743-1.161 0.821-0.832 1.089-2.718 1.089-2.718s0.273-2.217 0.273-4.433v-2.078c0-2.2142-0.273-4.4313-0.273-4.4313s-0.27-1.8877-1.089-2.7194c-1.041-1.0901-2.208-1.0958-2.743-1.1597-3.832-0.27673-9.581-0.27673-9.581-0.27673h-0.014-0.003z"/>
    <polygon id="Path" points="11.525 6.2111 18.926 10.072 11.527 13.907 11.527 6.2111" fill="#666"/>
   </g>
   <path id="path4239" fill="#666" d="m113 0.9975c-12.15 0-22.003 9.8495-22.003 22s9.853 22 22.003 22 22-9.85 22-22c0-12.151-9.85-22-22-22z"/>
   <path id="path4241" fill="#fff" d="m122.69 14.748c-4.02 0-6.76 2.451-6.76 6.952v3.529h-4.55v5.26h4.55v14.287c1.86-0.246 3.68-0.729 5.42-1.439v-12.848h4.54l0.67-5.26h-5.21v-3.005c0-1.523 0.5-3.088 2.62-2.565h2.78v-4.705c-0.48-0.064-2.14-0.207-4.06-0.207v0.001z"/>
   <path id="path4245" fill="#666" d="m68 1c-12.15 0-22 9.85-22 22s9.85 22 22 22 22-9.85 22-22c0-5.835-2.318-11.431-6.444-15.556-4.125-4.1261-9.721-6.444-15.556-6.444z"/>
   <path id="Shape" fill="#fff" d="m72.83 21.029h-9.573v3.99h5.412c-0.867 2.279-3.108 3.735-5.543 3.6-2.434-0.134-4.502-1.829-5.112-4.19-0.61-2.36 0.378-4.844 2.442-6.141 2.065-1.298 4.731-1.11 6.594 0.464l2.781-2.869c-3.507-3.14-8.776-3.266-12.429-0.296-3.652 2.97-4.604 8.154-2.246 12.228 2.359 4.074 7.329 5.829 11.723 4.14s6.909-6.321 5.932-10.926h0.019z"/>
   <polygon id="Shape" points="83.98 21.285 80.635 21.285 80.635 17.939 78.19 17.939 78.19 21.285 74.841 21.285 74.841 23.733 78.19 23.733 78.19 27.078 80.635 27.078 80.635 23.733 83.98 23.733" fill="#fff"/>
   <path id="path4245" fill="#DC4A38" d="m68 46c-12.15 0-22 9.85-22 22s9.85 22 22 22 22-9.85 22-22c0-5.835-2.318-11.431-6.444-15.556-4.125-4.126-9.721-6.444-15.556-6.444z"/>
   <path id="Shape" fill="#fff" d="m72.83 66.279h-9.573v3.99h5.412c-0.867 2.279-3.108 3.735-5.543 3.6-2.434-0.134-4.502-1.829-5.112-4.19-0.61-2.36 0.378-4.844 2.442-6.141 2.065-1.298 4.731-1.11 6.594 0.464l2.781-2.869c-3.507-3.14-8.776-3.266-12.429-0.296-3.652 2.97-4.604 8.154-2.246 12.228 2.359 4.074 7.329 5.829 11.723 4.14s6.909-6.321 5.932-10.926h0.019z"/>
   <polygon id="Shape" points="83.98 66.535 80.635 66.535 80.635 63.189 78.19 63.189 78.19 66.535 74.841 66.535 74.841 68.983 78.19 68.983 78.19 72.328 80.635 72.328 80.635 68.983 83.98 68.983" fill="#fff"/>
   <path id="path4251" fill="#666" d="m22.996 0.9975c-12.151 0-22 9.8495-22 22-0.00038 12.15 9.849 22 22 22 12.15 0 22-9.85 22-22 0-12.151-9.85-22-22-22z"/>
   <path id="path4253" fill="#fff" d="m26.179 11.949c-2.059 0.636-4.041 3.464-3.419 6.664-6.834-0.419-9.852-4.144-11.667-5.926-1.85 3.321 0.047 6.549 1.704 7.594-0.875 0.049-1.932-0.335-2.457-0.67-0.2 3.064 2.255 5.188 4.343 5.738-0.667 0.203-1.296 0.23-2.372 0.067 0.916 3.082 3.376 3.907 5.209 4.042-2.359 2.083-5.193 2.537-8.2744 2.384 7.9884 4.971 16.055 1.912 19.982-1.989 3.298-3.276 4.772-8.181 4.823-12.57 0.754-0.624 2.28-1.946 2.695-2.981-0.602 0.236-1.792 0.796-3.035 0.846 1.023-0.682 2.196-2.048 2.319-3.116-1.133 0.627-2.444 1.171-3.567 1.344-2.117-2.078-4.178-2.076-6.284-1.426v-0.001z"/>
  </g>
 </g>
</svg>
