<?xml version="1.0" encoding="UTF-8" standalone="no"?>
<!-- Generator: Adobe Illustrator 17.0.2, SVG Export Plug-In . SVG Version: 6.00 Build 0)  -->
<svg id="Layer_1" xmlns:rdf="http://www.w3.org/1999/02/22-rdf-syntax-ns#" xmlns="http://www.w3.org/2000/svg" enable-background="new 0 0 179 89" xml:space="preserve" height="89px" viewBox="0 0 179 89" width="179px" version="1.1" y="0px" x="0px" xmlns:cc="http://creativecommons.org/ns#" xmlns:dc="http://purl.org/dc/elements/1.1/"><metadata id="metadata45"><rdf:RDF><cc:Work rdf:about=""><dc:format>image/svg+xml</dc:format><dc:type rdf:resource="http://purl.org/dc/dcmitype/StillImage"/></cc:Work></rdf:RDF></metadata><g id="g4221"><path id="path33" fill="#DD4813" d="m157 81.008c-7.737 0-14.009-6.27-14.009-14.009 0-7.737 6.272-14.008 14.009-14.008s14.008 6.271 14.008 14.008c0 7.74-6.27 14.009-14.01 14.009zm22-14.008c0 12.15-9.85 22-22 22-12.151 0-22-9.85-22-22 0-12.151 9.849-22 22-22 12.15 0 22 9.849 22 22zm-22-16.648c-9.195 0-16.648 7.454-16.648 16.648 0 9.196 7.453 16.648 16.648 16.648 9.196 0 16.648-7.452 16.648-16.648 0-9.194-7.45-16.648-16.65-16.648z"/><g id="layer1" transform="matrix(.6875 0 0 .6875 -84.429 -271.5)"><path id="path5775" style="color:#000000;enable-background:accumulate" d="m285.71 460.36a32 32 0 0 0 -32 32 32 32 0 0 0 32 32 32 32 0 0 0 32 -32 32 32 0 0 0 -32 -32z" fill="#3c599b"/><path id="rect5792" style="color:#000000;enable-background:accumulate" d="m299.81 480.36c-5.8409 0-9.8398 3.5659-9.8398 10.113v5.1328h-6.6074v7.6504h6.6074v20.781a32 32 0 0 0 7.8965 -2.0918v-18.689h6.5918l0.98437-7.6504h-7.5762v-4.3711c0-2.2151 0.71503-4.4918 3.7988-3.7305h4.0508v-6.8438c-0.7008-0.0931-3.1082-0.30078-5.9062-0.30078z" fill="#fff"/></g><g id="layer1-9" transform="matrix(.6875 0 0 .6875 -129.47 -271.5)"><path id="path5803" style="color:#000000;enable-background:accumulate" d="m285.71 460.36a32 32 0 0 0 -32 32 32 32 0 0 0 32 32 32 32 0 0 0 32 -32 32 32 0 0 0 -32 -32z" fill="#dc4a38"/><path id="path5709-9" fill="#fff" d="m284.34 471.36c-2.8887 0-7.0518 0.69717-10.1 3.2709-2.2971 2.0272-3.4195 4.8251-3.4195 7.3416 0 4.2718 3.2074 8.6026 8.8693 8.6026 0.5346 0 1.1184-0.0567 1.7072-0.11288-0.2636 0.65832-0.5282 1.2077-0.5282 2.138 0 1.6965 0.8484 2.7365 1.5997 3.7221-2.4057 0.1693-6.8965 0.44046-10.207 2.5223-3.1533 1.918-4.1117 4.7096-4.1117 6.6801 0 4.0557 3.7397 7.8337 11.489 7.8337 9.1895 0 14.052-5.202 14.052-10.351 0-3.783-2.1342-5.6432-4.4859-7.6694l-1.9277-1.528c-0.5864-0.49742-1.3894-1.1563-1.3894-2.3582 0-1.2069 0.8012-1.9758 1.4973-2.6863 2.243-1.8059 4.4857-3.7271 4.4857-7.7773 0-4.1649-2.5611-6.3536-3.7886-7.3928h3.3119l3.4759-2.2354h-10.53zm-3.8965 2.0713c4.432 0 6.7264 6.1291 6.7264 10.074 0 0.98696-0.105 2.7396-1.333 4.0038-0.8593 0.87724-2.2999 1.5279-3.6349 1.5279-4.5973 0-6.6802-6.0779-6.6802-9.746 0-1.4282 0.2641-2.9037 1.1742-4.0552 0.8571-1.0969 2.354-1.8046 3.7475-1.8046zm21.246 11.161v5.1781h-5.0603v2.5889h5.0603v5.2138h2.5017v-5.2138h5.0805v-2.5889h-5.0805v-5.1781h-2.5017zm-18.631 13.268c0.5339 0 0.8001-0.003 1.2253 0.0512 4.0641 2.9585 5.8291 4.4332 5.8291 7.2339 0 3.3916-2.723 5.9162-7.8541 5.9162-5.7166 0-9.4078-2.7958-9.4078-6.6853 0-3.8885 3.423-5.2038 4.599-5.6393 2.2429-0.77198 5.1268-0.87671 5.6085-0.87671z"/></g><g id="layer1-3" transform="matrix(.6875 0 0 .6875 -174.43 -271.5)"><path id="path5750" style="color:#000000;enable-background:accumulate" d="m285.71 460.36a32 32 0 0 0 -32 32 32 32 0 0 0 32 32 32 32 0 0 0 32 -32 32 32 0 0 0 -32 -32z" fill="#55acee"/><path id="path5679-3" d="m290.34 476.29c-2.995 0.92444-5.8772 5.0382-4.9732 9.6919-9.9401-0.60889-14.33-6.0264-16.97-8.619-2.6906 4.8306 0.069 9.5258 2.4785 11.046-1.272 0.0712-2.8103-0.48809-3.574-0.97454-0.2901 4.4566 3.2805 7.5458 6.3179 8.3465-0.9709 0.29459-1.8861 0.33424-3.4505 0.0975 1.3322 4.4822 4.9112 5.6817 7.5772 5.8792-3.4321 3.0291-7.5539 3.6896-12.036 3.4668 11.62 7.2305 23.354 2.7821 29.066-2.8922 4.796-4.7649 6.94-11.9 7.0141-18.284 1.0977-0.90729 3.3174-2.8305 3.9204-4.3357-0.8754 0.34248-2.6071 1.1573-4.4144 1.2306 1.4884-0.99184 3.1939-2.9795 3.3727-4.5334-1.648 0.91285-3.5551 1.7038-5.1882 1.9561-3.0792-3.0231-6.0773-3.0206-9.1408-2.0748z" fill="#fff"/></g></g><g id="g4233" transform="translate(0 -45)"><path id="path4235" d="m157 81.008c-7.737 0-14.009-6.27-14.009-14.009 0-7.737 6.272-14.008 14.009-14.008s14.008 6.271 14.008 14.008c0 7.74-6.271 14.009-14.008 14.009zm22-14.008c0 12.15-9.85 22-22 22-12.151 0-22-9.85-22-22 0-12.151 9.849-22 22-22 12.15 0 22 9.849 22 22zm-22-16.648c-9.195 0-16.648 7.454-16.648 16.648 0 9.196 7.453 16.648 16.648 16.648 9.196 0 16.648-7.452 16.648-16.648 0-9.194-7.45-16.648-16.65-16.648z" fill="#aea79f"/><g id="g4237" transform="matrix(.6875 0 0 .6875 -84.429 -271.5)"><path id="path4239" style="color:#000000;enable-background:accumulate" d="m285.71 460.36a32 32 0 0 0 -32 32 32 32 0 0 0 32 32 32 32 0 0 0 32 -32 32 32 0 0 0 -32 -32z" fill="#aea79f"/><path id="path4241" style="color:#000000;enable-background:accumulate" d="m299.81 480.36c-5.8409 0-9.8398 3.5659-9.8398 10.113v5.1328h-6.6074v7.6504h6.6074v20.781a32 32 0 0 0 7.8965 -2.0918v-18.689h6.5918l0.98437-7.6504h-7.5762v-4.3711c0-2.2151 0.71503-4.4918 3.7988-3.7305h4.0508v-6.8438c-0.7008-0.0931-3.1082-0.30078-5.9062-0.30078z" fill="#fff"/></g><g id="g4243" transform="matrix(.6875 0 0 .6875 -129.47 -271.5)"><path id="path4245" style="color:#000000;enable-background:accumulate" d="m285.71 460.36a32 32 0 0 0 -32 32 32 32 0 0 0 32 32 32 32 0 0 0 32 -32 32 32 0 0 0 -32 -32z" fill="#aea79f"/><path id="path4247" d="m284.34 471.36c-2.8887 0-7.0518 0.69717-10.1 3.2709-2.2971 2.0272-3.4195 4.8251-3.4195 7.3416 0 4.2718 3.2074 8.6026 8.8693 8.6026 0.5346 0 1.1184-0.0567 1.7072-0.11288-0.2636 0.65832-0.5282 1.2077-0.5282 2.138 0 1.6965 0.8484 2.7365 1.5997 3.7221-2.4057 0.1693-6.8965 0.44046-10.207 2.5223-3.1533 1.918-4.1117 4.7096-4.1117 6.6801 0 4.0557 3.7397 7.8337 11.489 7.8337 9.1895 0 14.052-5.202 14.052-10.351 0-3.783-2.1342-5.6432-4.4859-7.6694l-1.9277-1.528c-0.5864-0.49742-1.3894-1.1563-1.3894-2.3582 0-1.2069 0.8012-1.9758 1.4973-2.6863 2.243-1.8059 4.4857-3.7271 4.4857-7.7773 0-4.1649-2.5611-6.3536-3.7886-7.3928h3.3119l3.4759-2.2354h-10.53zm-3.8965 2.0713c4.432 0 6.7264 6.1291 6.7264 10.074 0 0.98696-0.105 2.7396-1.333 4.0038-0.8593 0.87724-2.2999 1.5279-3.6349 1.5279-4.5973 0-6.6802-6.0779-6.6802-9.746 0-1.4282 0.2641-2.9037 1.1742-4.0552 0.8571-1.0969 2.354-1.8046 3.7475-1.8046zm21.246 11.161v5.1781h-5.0603v2.5889h5.0603v5.2138h2.5017v-5.2138h5.0805v-2.5889h-5.0805v-5.1781h-2.5017zm-18.631 13.268c0.5339 0 0.8001-0.003 1.2253 0.0512 4.0641 2.9585 5.8291 4.4332 5.8291 7.2339 0 3.3916-2.723 5.9162-7.8541 5.9162-5.7166 0-9.4078-2.7958-9.4078-6.6853 0-3.8885 3.423-5.2038 4.599-5.6393 2.2429-0.77198 5.1268-0.87671 5.6085-0.87671z" fill="#fff"/></g><g id="g4249" transform="matrix(.6875 0 0 .6875 -174.43 -271.5)"><path id="path4251" style="color:#000000;enable-background:accumulate" d="m285.71 460.36a32 32 0 0 0 -32 32 32 32 0 0 0 32 32 32 32 0 0 0 32 -32 32 32 0 0 0 -32 -32z" fill="#aea79f"/><path id="path4253" d="m290.34 476.29c-2.995 0.92444-5.8772 5.0382-4.9732 9.6919-9.9401-0.60889-14.33-6.0264-16.97-8.619-2.6906 4.8306 0.069 9.5258 2.4785 11.046-1.272 0.0712-2.8103-0.48809-3.574-0.97454-0.2901 4.4566 3.2805 7.5458 6.3179 8.3465-0.9709 0.29459-1.8861 0.33424-3.4505 0.0975 1.3322 4.4822 4.9112 5.6817 7.5772 5.8792-3.4321 3.0291-7.5539 3.6896-12.036 3.4668 11.62 7.2305 23.354 2.7821 29.066-2.8922 4.796-4.7649 6.94-11.9 7.0141-18.284 1.0977-0.90729 3.3174-2.8305 3.9204-4.3357-0.8754 0.34248-2.6071 1.1573-4.4144 1.2306 1.4884-0.99184 3.1939-2.9795 3.3727-4.5334-1.648 0.91285-3.5551 1.7038-5.1882 1.9561-3.0792-3.0231-6.0773-3.0206-9.1408-2.0748z" fill="#fff"/></g></g></svg>
