<svg xmlns="http://www.w3.org/2000/svg" height="90" width="180" viewBox="0 0 180 90"><title>build.snapcraft.social</title><g fill="none"><path fill="#CD201F" d="M180 68c0 12.15-9.85 22-22 22s-22-9.85-22-22 9.85-22 22-22 22 9.85 22 22z"/><path fill="#fff" d="M158.347 58.724s-5.748 0-9.58.277c-.534.07-1.7.08-2.743 1.16-.823.84-1.088 2.72-1.088 2.72s-.273 2.22-.273 4.43v2.08c0 2.22.274 4.44.274 4.44s.27 1.89 1.09 2.72c1.04 1.09 2.41 1.06 3.02 1.17 2.19.21 9.31.28 9.31.28s5.756-.01 9.588-.282c.535-.065 1.703-.07 2.743-1.16.82-.832 1.09-2.72 1.09-2.72s.272-2.215.272-4.43v-2.08c0-2.213-.273-4.43-.273-4.43s-.27-1.888-1.09-2.72c-1.04-1.09-2.207-1.096-2.742-1.16-3.832-.276-9.58-.276-9.58-.276h-.018z"/><path fill="#CD201F" d="M155.525 64.21l7.4 3.862-7.398 3.835V64.21"/><path fill="#3C599B" d="M113 45.998c-12.15 0-22.003 9.85-22.003 22s9.853 22 22.003 22 22-9.85 22-22-9.85-22-22-22z"/><path fill="#fff" d="M122.69 59.748c-4.02 0-6.76 2.45-6.76 6.952v3.53h-4.55v5.26h4.55v14.286c1.86-.246 3.68-.73 5.42-1.44V75.49h4.54l.67-5.26h-5.21v-3.006c0-1.523.5-3.088 2.62-2.565h2.78v-4.71c-.48-.07-2.14-.21-4.06-.21z"/><path fill="#55ACEE" d="M22.996 45.998c-12.15 0-22 9.85-22 22s9.85 22 22 22 22-9.85 22-22-9.85-22-22-22z"/><path fill="#fff" d="M26.18 56.95c-2.06.635-4.042 3.463-3.42 6.663-6.834-.42-9.852-4.144-11.667-5.926-1.85 3.32.047 6.55 1.704 7.594-.875.05-1.932-.33-2.457-.67-.2 3.07 2.255 5.19 4.343 5.74-.667.21-1.296.23-2.372.07.92 3.08 3.38 3.91 5.21 4.04-2.36 2.09-5.19 2.54-8.27 2.39 7.99 4.97 16.06 1.91 19.98-1.99 3.3-3.27 4.77-8.18 4.83-12.57.76-.62 2.28-1.94 2.7-2.98-.6.24-1.79.8-3.033.85 1.024-.68 2.197-2.05 2.32-3.114-1.133.627-2.444 1.17-3.567 1.344-2.118-2.08-4.178-2.08-6.285-1.43z"/><path fill="#666" d="M180 23c0 12.15-9.85 22-22 22s-22-9.85-22-22 9.85-22 22-22 22 9.85 22 22z"/><path fill="#fff" d="M158.347 13.724s-5.748 0-9.58.277c-.534.07-1.7.08-2.743 1.16-.823.84-1.088 2.72-1.088 2.72s-.273 2.22-.273 4.43v2.08c0 2.22.274 4.44.274 4.44s.27 1.89 1.09 2.72c1.04 1.09 2.41 1.06 3.02 1.17 2.19.21 9.31.28 9.31.28s5.756-.01 9.588-.282c.535-.065 1.703-.07 2.743-1.16.82-.832 1.09-2.72 1.09-2.72s.272-2.215.272-4.43v-2.08c0-2.213-.273-4.43-.273-4.43s-.27-1.888-1.09-2.72c-1.04-1.09-2.207-1.096-2.742-1.16-3.832-.276-9.58-.276-9.58-.276h-.018z"/><path fill="#666" d="M155.525 19.21l7.4 3.862-7.398 3.835V19.21M113 .998c-12.15 0-22.003 9.85-22.003 22s9.853 22 22.003 22 22-9.85 22-22-9.85-22-22-22z"/><path fill="#fff" d="M122.69 14.748c-4.02 0-6.76 2.45-6.76 6.952v3.53h-4.55v5.26h4.55v14.286c1.86-.246 3.68-.73 5.42-1.44V30.49h4.54l.67-5.26h-5.21v-3.006c0-1.523.5-3.088 2.62-2.565h2.78v-4.71c-.48-.07-2.14-.21-4.06-.21z"/><path fill="#666" d="M68 1c-12.15 0-22 9.85-22 22s9.85 22 22 22 22-9.85 22-22c0-5.835-2.318-11.43-6.444-15.556C79.43 3.318 73.836 1 68 1z"/><path fill="#fff" d="M72.83 21.03h-9.573v3.99h5.412c-.87 2.278-3.11 3.734-5.55 3.6-2.44-.135-4.5-1.83-5.11-4.19-.61-2.36.38-4.845 2.44-6.142 2.06-1.298 4.73-1.11 6.59.464l2.78-2.87c-3.51-3.14-8.78-3.265-12.43-.295-3.65 2.97-4.608 8.154-2.25 12.228 2.36 4.074 7.33 5.83 11.723 4.14s6.91-6.32 5.93-10.926h.02zm11.15.255h-3.345V17.94H78.19v3.345h-3.35v2.448h3.35v3.345h2.445v-3.345h3.345"/><path fill="#DC4A38" d="M68 46c-12.15 0-22 9.85-22 22s9.85 22 22 22 22-9.85 22-22c0-5.835-2.318-11.43-6.444-15.556C79.43 48.318 73.836 46 68 46z"/><path fill="#fff" d="M72.83 66.28h-9.573v3.99h5.412c-.87 2.278-3.11 3.734-5.55 3.6-2.44-.135-4.5-1.83-5.11-4.19-.61-2.36.38-4.845 2.44-6.142 2.06-1.298 4.73-1.11 6.59.464l2.78-2.87c-3.51-3.14-8.78-3.265-12.43-.295-3.65 2.97-4.608 8.154-2.25 12.228 2.36 4.074 7.33 5.83 11.723 4.14s6.91-6.32 5.93-10.926h.02zm11.15.255h-3.345V63.19H78.19v3.345h-3.35v2.448h3.35v3.345h2.445v-3.345h3.345"/><path fill="#666" d="M22.996.998c-12.15 0-22 9.85-22 22s9.85 22 22 22 22-9.85 22-22-9.85-22-22-22z"/><path fill="#fff" d="M26.18 11.95c-2.06.635-4.042 3.463-3.42 6.663-6.834-.42-9.852-4.144-11.667-5.926-1.85 3.32.047 6.55 1.704 7.594-.875.05-1.932-.33-2.457-.67-.2 3.07 2.255 5.19 4.343 5.74-.667.21-1.296.23-2.372.07.92 3.08 3.38 3.91 5.21 4.04-2.36 2.09-5.19 2.54-8.27 2.39 7.99 4.97 16.06 1.91 19.98-1.99 3.3-3.27 4.77-8.18 4.83-12.57.76-.62 2.28-1.94 2.7-2.98-.6.24-1.79.8-3.033.85 1.024-.68 2.197-2.05 2.32-3.114-1.133.627-2.444 1.17-3.567 1.344-2.118-2.08-4.178-2.08-6.285-1.43z"/></g></svg>